<svg xmlns="http://www.w3.org/2000/svg" version="1.1" xmlns:xlink="http://www.w3.org/1999/xlink" xmlns:svgjs="http://svgjs.dev/svgjs" width="2000" height="1247" viewBox="0 0 2000 1247"><g transform="matrix(1,0,0,1,-1.2121212121212466,0.504858299595071)"><svg viewBox="0 0 396 247" data-background-color="#ffffff" preserveAspectRatio="xMidYMid meet" height="1247" width="2000" xmlns="http://www.w3.org/2000/svg" xmlns:xlink="http://www.w3.org/1999/xlink"><g id="tight-bounds" transform="matrix(1,0,0,1,0.2400000000000091,-0.09999999999999432)"><svg viewBox="0 0 395.52 247.2" height="247.2" width="395.52"><g><svg></svg></g><g><svg viewBox="0 0 395.52 247.2" height="247.2" width="395.52"><g transform="matrix(1,0,0,1,75.54432,101.92846205066344)"><svg viewBox="0 0 244.43135999999998 43.3430758986731" height="43.3430758986731" width="244.43135999999998"><g><svg viewBox="0 0 244.43135999999998 43.3430758986731" height="43.3430758986731" width="244.43135999999998"><g><svg viewBox="0 0 244.43135999999998 43.3430758986731" height="43.3430758986731" width="244.43135999999998"><g><svg viewBox="0 0 244.43135999999998 43.3430758986731" height="43.3430758986731" width="244.43135999999998"><g><svg viewBox="0 0 244.43135999999998 43.3430758986731" height="43.3430758986731" width="244.43135999999998"><g><svg viewBox="0 0 244.43135999999998 43.3430758986731" height="43.3430758986731" width="244.43135999999998"><g transform="matrix(1,0,0,1,0,0)"><svg width="244.43135999999998" viewBox="2.75 -40.400001525878906 290.1199951171875 51.45000076293945" height="43.3430758986731" data-palette-color="#6b7280"><path d="M2.75-34.65L10.75-34.65 10.75 0 2.75 0 2.75-34.65ZM36.65-30.6L38.45-25Q36.15-24 31.6-24L31.6-24Q34-22.9 35.12-21.28 36.25-19.65 36.25-17.1L36.25-17.1Q36.25-14.55 35-12.53 33.75-10.5 31.42-9.38 29.1-8.25 25.95-8.25L25.95-8.25Q24.45-8.25 23.25-8.55L23.25-8.55Q22.4-8 22.4-6.95L22.4-6.95Q22.4-6.15 22.97-5.7 23.55-5.25 25.1-5.25L25.1-5.25 28.35-5.25Q32.75-5.25 35.35-3.13 37.95-1 37.95 2.35L37.95 2.35Q37.95 6.4 34.65 8.72 31.35 11.05 25.2 11.05L25.2 11.05Q18.6 11.05 16.05 8.9 13.5 6.75 13.5 2.55L13.5 2.55 20.4 2.55Q20.4 4.4 21.4 5.2 22.4 6 25.3 6L25.3 6Q28.05 6 29.15 5.18 30.25 4.35 30.25 2.9L30.25 2.9Q30.25 0.1 26.7 0.1L26.7 0.1 23.85 0.1Q19.85 0.1 17.95-1.33 16.05-2.75 16.05-5.1L16.05-5.1Q16.05-6.55 16.85-7.85 17.65-9.15 19-10.1L19-10.1Q16.7-11.45 15.67-13.25 14.65-15.05 14.65-17.7L14.65-17.7Q14.65-22.2 17.62-24.8 20.6-27.4 25.6-27.35L25.6-27.35Q29.1-27.3 31.45-28.13 33.8-28.95 36.65-30.6L36.65-30.6ZM25.6-22.3Q22.25-22.3 22.25-17.8L22.25-17.8Q22.25-15.5 23.12-14.35 24-13.2 25.6-13.2L25.6-13.2Q27.25-13.2 28.1-14.33 28.95-15.45 28.95-17.9L28.95-17.9Q28.95-20.2 28.12-21.25 27.3-22.3 25.6-22.3L25.6-22.3ZM55.4-27.4Q58.5-27.4 60.27-25.33 62.05-23.25 62.05-19.65L62.05-19.65 62.05 0 54.34 0 54.34-18.6Q54.34-20.25 53.87-20.93 53.4-21.6 52.45-21.6L52.45-21.6Q51.45-21.6 50.52-20.78 49.59-19.95 48.59-18.35L48.59-18.35 48.59 0 40.9 0 40.9-26.55 47.65-26.55 48.2-23.4Q49.65-25.4 51.4-26.4 53.15-27.4 55.4-27.4L55.4-27.4ZM86.64-7.35Q86.64-6 86.99-5.35 87.34-4.7 88.19-4.35L88.19-4.35 86.59 0.7Q84.29 0.5 82.84-0.35 81.39-1.2 80.59-3L80.59-3Q78.14 0.85 73.44 0.85L73.44 0.85Q69.84 0.85 67.72-1.43 65.59-3.7 65.59-7.45L65.59-7.45Q65.59-11.8 68.52-14.1 71.44-16.4 76.99-16.4L76.99-16.4 79.09-16.4 79.09-17.65Q79.09-20 78.24-20.93 77.39-21.85 75.24-21.85L75.24-21.85Q72.79-21.85 68.99-20.5L68.99-20.5 67.24-25.45Q69.44-26.4 71.94-26.9 74.44-27.4 76.59-27.4L76.59-27.4Q81.74-27.4 84.19-25.1 86.64-22.8 86.64-18.1L86.64-18.1 86.64-7.35ZM75.74-4.65Q76.79-4.65 77.67-5.3 78.54-5.95 79.09-7.15L79.09-7.15 79.09-12.1 77.69-12.1Q75.34-12.1 74.24-11.13 73.14-10.15 73.14-8.1L73.14-8.1Q73.14-6.4 73.82-5.53 74.49-4.65 75.74-4.65L75.74-4.65ZM102.84-27.4Q105.34-27.4 107.34-26.6 109.34-25.8 111.09-24.15L111.09-24.15 107.89-19.75Q106.74-20.65 105.69-21.08 104.64-21.5 103.44-21.5L103.44-21.5Q101.14-21.5 99.99-19.6 98.84-17.7 98.84-13.1L98.84-13.1Q98.84-8.7 100.02-6.95 101.19-5.2 103.39-5.2L103.39-5.2Q104.54-5.2 105.49-5.58 106.44-5.95 107.74-6.85L107.74-6.85 111.09-2.3Q107.64 0.85 102.94 0.85L102.94 0.85Q97.24 0.85 94.02-2.8 90.79-6.45 90.79-13.05L90.79-13.05Q90.79-17.4 92.27-20.65 93.74-23.9 96.47-25.65 99.19-27.4 102.84-27.4L102.84-27.4ZM113.74-26.55L121.44-26.55 121.44 0 113.74 0 113.74-26.55ZM117.54-40.4Q119.49-40.4 120.76-39.15 122.04-37.9 122.04-36.05L122.04-36.05Q122.04-34.15 120.76-32.9 119.49-31.65 117.54-31.65L117.54-31.65Q115.59-31.65 114.34-32.9 113.09-34.15 113.09-36.05L113.09-36.05Q113.09-37.9 114.34-39.15 115.59-40.4 117.54-40.4L117.54-40.4ZM137.44-27.4Q143.03-27.4 146.21-23.78 149.39-20.15 149.39-13.25L149.39-13.25Q149.39-6.65 146.19-2.9 142.99 0.85 137.44 0.85L137.44 0.85Q131.84 0.85 128.69-2.8 125.54-6.45 125.54-13.3L125.54-13.3Q125.54-19.95 128.71-23.68 131.89-27.4 137.44-27.4L137.44-27.4ZM137.44-21.7Q135.39-21.7 134.44-19.75 133.49-17.8 133.49-13.3L133.49-13.3Q133.49-8.7 134.44-6.75 135.39-4.8 137.44-4.8L137.44-4.8Q139.49-4.8 140.46-6.78 141.44-8.75 141.44-13.25L141.44-13.25Q141.44-17.85 140.49-19.78 139.53-21.7 137.44-21.7L137.44-21.7ZM176.93-35.5Q183.78-35.5 187.48-30.88 191.18-26.25 191.18-17.35L191.18-17.35Q191.18-8.55 187.46-3.85 183.73 0.85 176.93 0.85L176.93 0.85Q170.13 0.85 166.41-3.8 162.68-8.45 162.68-17.35L162.68-17.35Q162.68-26.1 166.41-30.8 170.13-35.5 176.93-35.5L176.93-35.5ZM176.93-29.65Q173.88-29.65 172.46-26.8 171.03-23.95 171.03-17.35L171.03-17.35Q171.03-10.65 172.48-7.83 173.93-5 176.93-5L176.93-5Q179.98-5 181.41-7.83 182.83-10.65 182.83-17.35L182.83-17.35Q182.83-23.95 181.41-26.8 179.98-29.65 176.93-29.65L176.93-29.65ZM208.88-27.3Q210.18-27.3 211.18-26.9L211.18-26.9 209.93-19.5Q208.88-19.8 207.83-19.8L207.83-19.8Q205.78-19.8 204.68-18.23 203.58-16.65 202.98-13.55L202.98-13.55 202.98 0 195.28 0 195.28-26.55 202.03-26.55 202.63-21.9Q203.53-24.5 205.13-25.9 206.73-27.3 208.88-27.3L208.88-27.3ZM235.13-13.8Q235.13-12.2 234.98-11L234.98-11 220.18-11Q220.48-7.5 221.73-6.15 222.98-4.8 225.28-4.8L225.28-4.8Q226.78-4.8 228.13-5.35 229.48-5.9 231.08-7.05L231.08-7.05 234.23-2.8Q230.13 0.85 224.68 0.85L224.68 0.85Q218.68 0.85 215.55-2.88 212.43-6.6 212.43-13.15L212.43-13.15Q212.43-19.55 215.43-23.48 218.43-27.4 223.88-27.4L223.88-27.4Q229.13-27.4 232.13-23.88 235.13-20.35 235.13-13.8L235.13-13.8ZM227.58-15.65L227.58-16Q227.58-19.15 226.75-20.73 225.93-22.3 223.98-22.3L223.98-22.3Q222.23-22.3 221.28-20.83 220.33-19.35 220.13-15.65L220.13-15.65 227.58-15.65ZM238.92-26.55L246.62-26.55 246.62 0 238.92 0 238.92-26.55ZM242.72-40.4Q244.67-40.4 245.95-39.15 247.22-37.9 247.22-36.05L247.22-36.05Q247.22-34.15 245.95-32.9 244.67-31.65 242.72-31.65L242.72-31.65Q240.77-31.65 239.52-32.9 238.27-34.15 238.27-36.05L238.27-36.05Q238.27-37.9 239.52-39.15 240.77-40.4 242.72-40.4L242.72-40.4ZM265.47-27.3Q266.77-27.3 267.77-26.9L267.77-26.9 266.52-19.5Q265.47-19.8 264.42-19.8L264.42-19.8Q262.37-19.8 261.27-18.23 260.17-16.65 259.57-13.55L259.57-13.55 259.57 0 251.87 0 251.87-26.55 258.62-26.55 259.22-21.9Q260.12-24.5 261.72-25.9 263.32-27.3 265.47-27.3L265.47-27.3ZM280.92-27.4Q286.52-27.4 289.69-23.78 292.87-20.15 292.87-13.25L292.87-13.25Q292.87-6.65 289.67-2.9 286.47 0.85 280.92 0.85L280.92 0.85Q275.32 0.85 272.17-2.8 269.02-6.45 269.02-13.3L269.02-13.3Q269.02-19.95 272.19-23.68 275.37-27.4 280.92-27.4L280.92-27.4ZM280.92-21.7Q278.87-21.7 277.92-19.75 276.97-17.8 276.97-13.3L276.97-13.3Q276.97-8.7 277.92-6.75 278.87-4.8 280.92-4.8L280.92-4.8Q282.97-4.8 283.94-6.78 284.92-8.75 284.92-13.25L284.92-13.25Q284.92-17.85 283.97-19.78 283.02-21.7 280.92-21.7L280.92-21.7Z" opacity="1" transform="matrix(1,0,0,1,0,0)" fill="#000000" class="undefined-text-0" data-fill-palette-color="primary" id="text-0"></path></svg></g></svg></g></svg></g></svg></g></svg></g></svg></g></svg></g><g><path d="M0 123.6c0-68.262 55.338-123.6 123.6-123.6 59.064 0 108.452 41.429 120.689 96.812h-2.002c-12.202-54.295-60.707-94.858-118.687-94.858-67.183 0-121.646 54.463-121.646 121.646 0 67.183 54.463 121.646 121.646 121.646 57.979 0 106.485-40.563 118.687-94.858h2.002c-12.238 55.384-61.625 96.812-120.689 96.812-68.262 0-123.6-55.338-123.6-123.6z" fill="#000000" stroke="transparent" data-fill-palette-color="tertiary"></path></g></svg></g><defs></defs></svg><rect width="395.52" height="247.2" fill="none" stroke="none" visibility="hidden"></rect></g></svg></g></svg>